<svg xmlns="http://www.w3.org/2000/svg" viewBox="0 0 77.4 80"><linearGradient id="a" gradientUnits="userSpaceOnUse" x1="65.7809" y1="69.6123" x2="1.4419" y2="7.5373" gradientTransform="matrix(1 0 0 -1 3.7 81.9959)"><stop offset=".048" stop-color="#fff44f"/><stop offset=".111" stop-color="#ffe847"/><stop offset=".225" stop-color="#ffc830"/><stop offset=".368" stop-color="#ff980e"/><stop offset=".401" stop-color="#ff8b16"/><stop offset=".462" stop-color="#ff672a"/><stop offset=".534" stop-color="#ff3647"/><stop offset=".705" stop-color="#e31587"/></linearGradient><path d="M74.6 26.8c-1.7-4.1-5.1-8.4-7.8-9.8 1.9 3.7 3.2 7.7 3.9 11.8v.1c-4.3-11-11.7-15.4-17.8-25L52 2.4c-.2-.3-.3-.6-.4-.8-.3-.5-.4-1-.6-1.5 0-.1 0-.1-.1-.1h-.1c-9.7 5.7-13 16.3-13.3 21.5-3.9.3-7.6 1.7-10.7 4.1-.3-.3-.7-.5-1-.8-.9-3.1-.9-6.4-.1-9.5-3.6 1.7-6.8 4.2-9.3 7.2-1.5-1.9-1.4-8.4-1.3-9.7-.5.2-.9.4-1.3.7-1.4 1-2.6 2.1-3.8 3.2C8.7 18 7.5 19.5 6.4 21 3.8 24.7 2 28.7 1.1 32.9l-.1.3c-.1.3-.3 2-.4 2.4v.1C.3 37.5.1 39.2 0 41v.2C0 62.6 17.4 80 38.8 80c18.9 0 35-13.6 38.2-32.2.1-.5.1-1 .2-1.5.7-6.6-.1-13.3-2.6-19.5zM29.9 57.2c.2.1.4.2.5.3-.1-.1-.3-.2-.5-.3zm40.9-28.3z" fill="url(#a)"/><radialGradient id="b" cx="-7912.187" cy="8597.1211" r="80.797" gradientTransform="matrix(1 0 0 -1 7978.7002 8605.9961)" gradientUnits="userSpaceOnUse"><stop offset=".129" stop-color="#ffbd4f"/><stop offset=".186" stop-color="#ffac31"/><stop offset=".247" stop-color="#ff9d17"/><stop offset=".283" stop-color="#ff980e"/><stop offset=".403" stop-color="#ff563b"/><stop offset=".467" stop-color="#ff3750"/><stop offset=".71" stop-color="#f5156c"/><stop offset=".782" stop-color="#eb0878"/><stop offset=".86" stop-color="#e50080"/></radialGradient><path d="M74.6 26.8c-1.7-4.1-5.1-8.4-7.8-9.8 1.9 3.7 3.2 7.7 3.9 11.8 3 8.5 2.6 17.9-1.2 26.2-4.4 9.5-15.2 19.3-32 18.8-18.2-.5-34.2-14-37.2-31.7-.5-2.8 0-4.2.3-6.5C.2 37.5 0 39.2 0 41v.2C0 62.6 17.4 80 38.8 80c18.9 0 35-13.6 38.2-32.2.1-.5.1-1 .2-1.5.7-6.6-.1-13.3-2.6-19.5z" fill="url(#b)"/><radialGradient id="c" cx="-7941.7109" cy="8564.0889" r="80.797" gradientTransform="matrix(1 0 0 -1 7978.7002 8605.9961)" gradientUnits="userSpaceOnUse"><stop offset=".3" stop-color="#960e18"/><stop offset=".351" stop-color="#b11927" stop-opacity=".74"/><stop offset=".435" stop-color="#db293d" stop-opacity=".343"/><stop offset=".497" stop-color="#f5334b" stop-opacity=".094"/><stop offset=".53" stop-color="#ff3750" stop-opacity="0"/></radialGradient><path d="M74.6 26.8c-1.7-4.1-5.1-8.4-7.8-9.8 1.9 3.7 3.2 7.7 3.9 11.8 3 8.5 2.6 17.9-1.2 26.2-4.4 9.5-15.2 19.3-32 18.8-18.2-.5-34.2-14-37.2-31.7-.5-2.8 0-4.2.3-6.5C.2 37.5 0 39.2 0 41v.2C0 62.6 17.4 80 38.8 80c18.9 0 35-13.6 38.2-32.2.1-.5.1-1 .2-1.5.7-6.6-.1-13.3-2.6-19.5z" fill="url(#c)"/><radialGradient id="d" cx="-7931.9697" cy="8615.457" r="58.5324" gradientTransform="matrix(1 0 0 -1 7978.7002 8605.9961)" gradientUnits="userSpaceOnUse"><stop offset=".132" stop-color="#fff44f"/><stop offset=".252" stop-color="#ffdc3e"/><stop offset=".506" stop-color="#ff9d12"/><stop offset=".526" stop-color="#ff980e"/></radialGradient><path d="M55.8 31.4c.1.1.2.1.2.2-1-1.7-2.2-3.3-3.6-4.7-12-12-3.2-26.1-1.7-26.8-9.7 5.7-13 16.3-13.3 21.5.5 0 .9-.1 1.4-.1 7 0 13.5 3.8 17 9.9z" fill="url(#d)"/><radialGradient id="e" cx="-7950.6479" cy="8542.9844" r="38.471" gradientTransform="matrix(1 0 0 -1 7978.7002 8605.9961)" gradientUnits="userSpaceOnUse"><stop offset=".353" stop-color="#3a8ee6"/><stop offset=".472" stop-color="#5c79f0"/><stop offset=".669" stop-color="#9059ff"/><stop offset="1" stop-color="#c139e6"/></radialGradient><path d="M38.8 33.8c-.1 1-3.5 4.3-4.7 4.3-11 0-12.8 6.7-12.8 6.7.5 5.6 4.4 10.2 9.1 12.7.2.1.4.2.7.3.4.2.8.3 1.1.5 1.6.6 3.3.9 5 1 19.3.9 23.1-23.1 9.1-30.1 3.3-.4 6.6.4 9.3 2.3-3.5-6.1-10-9.9-17-9.9-.5 0-.9 0-1.4.1-3.9.3-7.6 1.7-10.7 4.1.6.5 1.3 1.2 2.7 2.6 2.9 2.4 9.6 5.1 9.6 5.4z" fill="url(#e)"/><radialGradient id="f" cx="-7936.3301" cy="8574.6436" r="20.397" gradientTransform="matrix(.972 -.235 -.275 -1.138 10113.5439 7928.1919)" gradientUnits="userSpaceOnUse"><stop offset=".206" stop-color="#9059ff" stop-opacity="0"/><stop offset=".278" stop-color="#8c4ff3" stop-opacity=".064"/><stop offset=".747" stop-color="#7716a8" stop-opacity=".45"/><stop offset=".975" stop-color="#6e008b" stop-opacity=".6"/></radialGradient><path d="M38.8 33.8c-.1 1-3.5 4.3-4.7 4.3-11 0-12.8 6.7-12.8 6.7.5 5.6 4.4 10.2 9.1 12.7.2.1.4.2.7.3.4.2.8.3 1.1.5 1.6.6 3.3.9 5 1 19.3.9 23.1-23.1 9.1-30.1 3.3-.4 6.6.4 9.3 2.3-3.5-6.1-10-9.9-17-9.9-.5 0-.9 0-1.4.1-3.9.3-7.6 1.7-10.7 4.1.6.5 1.3 1.2 2.7 2.6 2.9 2.4 9.6 5.1 9.6 5.4z" fill="url(#f)"/><radialGradient id="g" cx="-7942.731" cy="8600.4268" r="27.676" gradientTransform="matrix(1 0 0 -1 7978.7002 8605.9961)" gradientUnits="userSpaceOnUse"><stop offset="0" stop-color="#ffe226"/><stop offset=".121" stop-color="#ffdb27"/><stop offset=".295" stop-color="#ffc82a"/><stop offset=".502" stop-color="#ffa930"/><stop offset=".732" stop-color="#ff7e37"/><stop offset=".792" stop-color="#ff7139"/></radialGradient><path d="M25 24.4c.3.2.6.4.8.5-.9-3.1-.9-6.4-.1-9.5-3.6 1.7-6.8 4.2-9.3 7.2.1 0 5.7-.1 8.6 1.8z" fill="url(#g)"/><radialGradient id="h" cx="-7920.9771" cy="8617.9814" r="118.081" gradientTransform="matrix(1 0 0 -1 7978.7002 8605.9961)" gradientUnits="userSpaceOnUse"><stop offset=".113" stop-color="#fff44f"/><stop offset=".456" stop-color="#ff980e"/><stop offset=".622" stop-color="#ff5634"/><stop offset=".716" stop-color="#ff3647"/><stop offset=".904" stop-color="#e31587"/></radialGradient><path d="M.4 42.2c3 17.7 19 31.2 37.2 31.7 16.8.5 27.6-9.3 32-18.8 3.8-8.2 4.2-17.6 1.2-26.2v.1c1.4 9-3.2 17.7-10.3 23.6-13.9 11.3-27.2 6.8-29.9 5l-.6-.3C21.9 53.4 18.5 46 19.3 39.7c-3.9.1-7.5-2.2-9.2-5.8 4.3-2.7 9.7-2.9 14.2-.6 4.6 2.1 9.8 2.3 14.6.6 0-.3-6.8-3-9.4-5.6-1.4-1.4-2.1-2.1-2.7-2.6-.3-.3-.7-.5-1-.8-.2-.2-.5-.3-.8-.5-2.8-1.8-8.4-1.7-8.6-1.7-1.5-1.9-1.4-8.4-1.3-9.7-.5.2-.9.4-1.3.7-1.4 1-2.6 2.1-3.8 3.2-1.3 1.3-2.5 2.8-3.6 4.3-2.6 3.5-4.4 7.5-5.3 11.7 0 .1-1.4 6.1-.7 9.3z" fill="url(#h)"/><radialGradient id="i" cx="-7931.0635" cy="8562.6406" r="86.499" gradientTransform="matrix(.105 .995 .653 -.069 -4710.8721 8476.8105)" gradientUnits="userSpaceOnUse"><stop offset="0" stop-color="#fff44f"/><stop offset=".06" stop-color="#ffe847"/><stop offset=".168" stop-color="#ffc830"/><stop offset=".304" stop-color="#ff980e"/><stop offset=".356" stop-color="#ff8b16"/><stop offset=".455" stop-color="#ff672a"/><stop offset=".57" stop-color="#ff3647"/><stop offset=".737" stop-color="#e31587"/></radialGradient><path d="M52.4 26.9c1.4 1.4 2.6 3 3.6 4.7.2.2.4.3.6.5 8.8 8.1 4.2 19.5 3.8 20.4 7.1-5.9 11.7-14.6 10.3-23.6-4.3-11-11.7-15.4-17.8-25L52 2.4c-.2-.3-.3-.6-.4-.8-.3-.5-.4-1-.6-1.5 0-.1 0-.1-.1-.1h-.1c-1.5.7-10.4 14.8 1.6 26.9z" fill="url(#i)"/><radialGradient id="j" cx="-7943.3828" cy="8590.1758" r="73.72" gradientTransform="matrix(1 0 0 -1 7978.7002 8605.9961)" gradientUnits="userSpaceOnUse"><stop offset=".137" stop-color="#fff44f"/><stop offset=".48" stop-color="#ff980e"/><stop offset=".592" stop-color="#ff5634"/><stop offset=".655" stop-color="#ff3647"/><stop offset=".904" stop-color="#e31587"/></radialGradient><path d="M56.6 32c-.2-.2-.4-.3-.6-.5-.1-.1-.2-.1-.2-.2-2.7-1.9-6.1-2.7-9.3-2.3 13.9 7 10.2 31-9.1 30.1-1.7-.1-3.4-.4-5-1-.4-.1-.8-.3-1.1-.5-.2-.1-.4-.2-.7-.3 2.7 1.8 16 6.3 29.9-5 .3-.7 4.9-12.2-3.9-20.3z" fill="url(#j)"/><radialGradient id="k" cx="-7923.9229" cy="8585.8613" r="80.686" gradientTransform="matrix(1 0 0 -1 7978.7002 8605.9961)" gradientUnits="userSpaceOnUse"><stop offset=".094" stop-color="#fff44f"/><stop offset=".231" stop-color="#ffe141"/><stop offset=".509" stop-color="#ffaf1e"/><stop offset=".626" stop-color="#ff980e"/></radialGradient><path d="M21.4 44.7S23.2 38 34.2 38c1.2 0 4.6-3.3 4.7-4.3-4.7 1.7-10 1.5-14.6-.6-4.5-2.3-9.9-2.1-14.2.6 1.7 3.6 5.2 5.8 9.2 5.8-.7 6.3 2.6 13.7 10.7 17.6.2.1.4.2.5.3-4.7-2.4-8.7-7-9.1-12.7z" fill="url(#k)"/><linearGradient id="l" gradientUnits="userSpaceOnUse" x1="65.0087" y1="69.9433" x2="10.2627" y2="15.1983" gradientTransform="matrix(1 0 0 -1 3.7 81.9959)"><stop offset=".167" stop-color="#fff44f" stop-opacity=".8"/><stop offset=".266" stop-color="#fff44f" stop-opacity=".634"/><stop offset=".489" stop-color="#fff44f" stop-opacity=".217"/><stop offset=".6" stop-color="#fff44f" stop-opacity="0"/></linearGradient><path d="M74.6 26.8c-1.7-4.1-5.1-8.4-7.8-9.8 1.9 3.7 3.2 7.7 3.9 11.8v.1c-4.3-11-11.7-15.4-17.8-25L52 2.4c-.2-.3-.3-.6-.4-.8-.3-.5-.4-1-.6-1.5 0-.1 0-.1-.1-.1h-.1c-9.7 5.7-13 16.3-13.3 21.5.5 0 .9-.1 1.4-.1 7 0 13.5 3.8 17 9.9-2.7-1.9-6.1-2.7-9.3-2.3 13.9 7 10.2 31-9.1 30.1-1.7-.1-3.4-.4-5-1-.4-.1-.8-.3-1.1-.5-.2-.1-.4-.2-.7-.3l-.6-.3c.2.1.4.2.5.3-4.7-2.4-8.6-7.1-9.1-12.7 0 0 1.8-6.7 12.8-6.7 1.2 0 4.6-3.3 4.7-4.3 0-.3-6.8-3-9.4-5.6-1.4-1.4-2.1-2.1-2.7-2.6-.3-.3-.7-.5-1-.8-.9-3.1-.9-6.4-.1-9.5-3.6 1.7-6.8 4.2-9.3 7.2-1.5-1.9-1.4-8.4-1.3-9.7-.5.2-.9.4-1.3.7-1.4 1-2.6 2.1-3.8 3.2-1.3 1.3-2.5 2.8-3.6 4.3-2.7 3.9-4.5 7.9-5.4 12.1l-.1.3c-.1.3-.4 2.1-.4 2.4C.3 37.4.1 39.2 0 41v.2C0 62.6 17.4 80 38.8 80c18.9 0 35-13.6 38.2-32.2.1-.5.1-1 .2-1.5.7-6.6-.1-13.3-2.6-19.5zm-3.8 2z" fill="url(#l)"/></svg>