<svg class="girls-logo" xmlns="http://www.w3.org/2000/svg" width="188.445" height="34.412" viewBox="0 0 188.445 34.412"> <g transform="translate(-285 -13)"> <g transform="translate(-525.164 -219.882)"> <path d="M851.511,243.069a4.717,4.717,0,0,1-.694-2.43,2.545,2.545,0,0,1,.639-1.944,2.35,2.35,0,0,1,1.661-.59H869.03a4.709,4.709,0,0,1,.694,2.43,2.545,2.545,0,0,1-.639,1.943,2.35,2.35,0,0,1-1.661.591h-4.051v16.036a10.662,10.662,0,0,1-1.259.208,13.976,13.976,0,0,1-1.7.1,8.075,8.075,0,0,1-1.478-.121,2.714,2.714,0,0,1-1.077-.434,1.879,1.879,0,0,1-.656-.868,4.037,4.037,0,0,1-.219-1.458V243.069Z" fill="#fff"></path> <path d="M887.473,250.809a10,10,0,0,1-.694,3.835,7.744,7.744,0,0,1-1.952,2.829,8.4,8.4,0,0,1-3.011,1.736,12.2,12.2,0,0,1-3.906.59,11.549,11.549,0,0,1-3.9-.625,8.631,8.631,0,0,1-3.011-1.788,7.931,7.931,0,0,1-1.953-2.829,10.375,10.375,0,0,1,0-7.462,7.948,7.948,0,0,1,1.953-2.829,8.676,8.676,0,0,1,3.011-1.788,11.574,11.574,0,0,1,3.9-.624,11.289,11.289,0,0,1,3.906.642,8.92,8.92,0,0,1,3.011,1.8,7.95,7.95,0,0,1,1.952,2.829A9.489,9.489,0,0,1,887.473,250.809Zm-12.775,0a5.282,5.282,0,0,0,.858,3.246,2.832,2.832,0,0,0,2.39,1.127,2.721,2.721,0,0,0,2.355-1.145,5.475,5.475,0,0,0,.821-3.228,5.3,5.3,0,0,0-.84-3.211,3.059,3.059,0,0,0-4.745,0A5.308,5.308,0,0,0,874.7,250.809Z" fill="#fff"></path> <path d="M897.448,241.854a14.771,14.771,0,0,1,4.07.537,8.889,8.889,0,0,1,3.23,1.649,7.686,7.686,0,0,1,2.117,2.8,9.617,9.617,0,0,1,.766,4.009,10.557,10.557,0,0,1-.657,3.887,7.566,7.566,0,0,1-1.861,2.795,7.66,7.66,0,0,1-2.9,1.683,12.108,12.108,0,0,1-3.777.555,9.156,9.156,0,0,1-2.921-.451v5.762a10.38,10.38,0,0,1-1.167.226,11.107,11.107,0,0,1-1.643.121,9.077,9.077,0,0,1-1.442-.1,2.539,2.539,0,0,1-1.076-.416,1.9,1.9,0,0,1-.657-.851,3.783,3.783,0,0,1-.219-1.406V245.984a2.574,2.574,0,0,1,.42-1.527,4.331,4.331,0,0,1,1.149-1.076,9.946,9.946,0,0,1,2.811-1.111A15.614,15.614,0,0,1,897.448,241.854Zm.073,13.259q3.759,0,3.76-4.269a4.945,4.945,0,0,0-.931-3.3,3.353,3.353,0,0,0-2.683-1.077,4.572,4.572,0,0,0-1.241.156,5.1,5.1,0,0,0-.949.365v7.636a5.623,5.623,0,0,0,.949.347A4.141,4.141,0,0,0,897.521,255.113Z" fill="#fff"></path> <path d="M922.207,242.444a5.548,5.548,0,0,0-4.307,1.631,6.584,6.584,0,0,0-1.5,4.617,6.228,6.228,0,0,0,1.66,4.651,6.1,6.1,0,0,0,4.471,1.631,7.388,7.388,0,0,0,2.537-.381,18.012,18.012,0,0,0,1.989-.868,3.489,3.489,0,0,1,.968,1.162,3.425,3.425,0,0,1,.346,1.58,2.836,2.836,0,0,1-1.661,2.412,10.117,10.117,0,0,1-5.054.99,15.641,15.641,0,0,1-4.6-.66,10.387,10.387,0,0,1-3.76-2.031,9.572,9.572,0,0,1-2.536-3.471,12.3,12.3,0,0,1-.931-5.015,11.907,11.907,0,0,1,.894-4.773,10.131,10.131,0,0,1,2.445-3.489,10.379,10.379,0,0,1,3.632-2.151,13.37,13.37,0,0,1,4.453-.729,10.686,10.686,0,0,1,5.2,1.041,3.06,3.06,0,0,1,1.843,2.673,2.6,2.6,0,0,1-.475,1.562,3.819,3.819,0,0,1-1.094,1.041,12.217,12.217,0,0,0-2.026-1.007A6.919,6.919,0,0,0,922.207,242.444Z" fill="#fff"></path> <path d="M947.57,259.209a9.051,9.051,0,0,1-1.149.208,12.259,12.259,0,0,1-1.625.1,8.93,8.93,0,0,1-1.441-.1,2.532,2.532,0,0,1-1.077-.416,2.016,2.016,0,0,1-.675-.85,3.5,3.5,0,0,1-.238-1.406v-7.706a2.365,2.365,0,0,0-.748-2,2.942,2.942,0,0,0-1.843-.573,5.4,5.4,0,0,0-1.388.174,4.137,4.137,0,0,0-1.058.416v12.149a9.015,9.015,0,0,1-1.149.208,12.258,12.258,0,0,1-1.625.1,8.938,8.938,0,0,1-1.441-.1,2.532,2.532,0,0,1-1.077-.416,2.016,2.016,0,0,1-.675-.85,3.505,3.505,0,0,1-.238-1.406V236.613c.268-.047.663-.11,1.187-.192a10.484,10.484,0,0,1,1.588-.121,8.955,8.955,0,0,1,1.441.1,2.544,2.544,0,0,1,1.077.417,2.018,2.018,0,0,1,.675.85,3.527,3.527,0,0,1,.237,1.406v3.4a13.776,13.776,0,0,1,1.442-.4,9.421,9.421,0,0,1,2.135-.225,8.456,8.456,0,0,1,5.639,1.718,6.338,6.338,0,0,1,2.026,5.12Z" fill="#fff"></path> <path d="M968.483,250.809a10,10,0,0,1-.693,3.835,7.745,7.745,0,0,1-1.953,2.829,8.385,8.385,0,0,1-3.011,1.736,12.2,12.2,0,0,1-3.9.59,11.555,11.555,0,0,1-3.906-.625A8.639,8.639,0,0,1,952,257.386a7.941,7.941,0,0,1-1.952-2.829,10.375,10.375,0,0,1,0-7.462A7.958,7.958,0,0,1,952,244.266a8.685,8.685,0,0,1,3.011-1.788,11.58,11.58,0,0,1,3.906-.624,11.283,11.283,0,0,1,3.9.642,8.909,8.909,0,0,1,3.011,1.8,7.952,7.952,0,0,1,1.953,2.829A9.489,9.489,0,0,1,968.483,250.809Zm-12.774,0a5.289,5.289,0,0,0,.857,3.246,2.833,2.833,0,0,0,2.391,1.127,2.719,2.719,0,0,0,2.354-1.145,5.468,5.468,0,0,0,.822-3.228,5.3,5.3,0,0,0-.84-3.211,3.059,3.059,0,0,0-4.745,0A5.3,5.3,0,0,0,955.709,250.809Z" fill="#fff"></path> <path d="M968.483,252.132v7.478a9.06,9.06,0,0,1-1.127.2,12.472,12.472,0,0,1-1.592.1,9.113,9.113,0,0,1-1.414-.1,2.533,2.533,0,0,1-1.056-.4,1.946,1.946,0,0,1-.661-.814,3.288,3.288,0,0,1-.233-1.347V242.13q.395-.066,1.163-.183a10.473,10.473,0,0,1,1.557-.116,8.989,8.989,0,0,1,1.413.1,2.5,2.5,0,0,1,1.055.4,1.932,1.932,0,0,1,.663.814,3.3,3.3,0,0,1,.232,1.345v7.643Z" fill="#fff"></path> <path d="M976.484,253.447a1.4,1.4,0,0,0,.6,1.284,3.159,3.159,0,0,0,1.7.382,7.681,7.681,0,0,0,1.132-.087,6.5,6.5,0,0,0,1.022-.225,4.279,4.279,0,0,1,.566.85,2.475,2.475,0,0,1,.237,1.128,2.635,2.635,0,0,1-1.04,2.153,6.04,6.04,0,0,1-3.668.832,7.743,7.743,0,0,1-4.946-1.388q-1.734-1.388-1.734-4.513V239.007q.4-.1,1.15-.225a9.9,9.9,0,0,1,1.588-.121,4.874,4.874,0,0,1,2.5.537,2.456,2.456,0,0,1,.894,2.274v2.222h4.782a5.889,5.889,0,0,1,.419.954,3.806,3.806,0,0,1,.2,1.267,2.333,2.333,0,0,1-.566,1.753,2.1,2.1,0,0,1-1.514.537h-3.322Z" fill="#fff"></path> <path d="M998.609,254.211a4.8,4.8,0,0,1-2.08,4.13,10.48,10.48,0,0,1-6.132,1.493,18.324,18.324,0,0,1-2.847-.208,8.456,8.456,0,0,1-2.245-.643,3.991,3.991,0,0,1-1.46-1.093,2.421,2.421,0,0,1-.528-1.562,2.562,2.562,0,0,1,.364-1.4,3.557,3.557,0,0,1,.877-.955,14.938,14.938,0,0,0,2.426.989,10.437,10.437,0,0,0,3.158.434,3.862,3.862,0,0,0,1.734-.312.938.938,0,0,0,.6-.834.863.863,0,0,0-.438-.763,4.214,4.214,0,0,0-1.46-.451l-1.1-.209a10.518,10.518,0,0,1-4.726-1.857,4.413,4.413,0,0,1-1.551-3.627,4.666,4.666,0,0,1,.584-2.326,4.971,4.971,0,0,1,1.642-1.735,8.442,8.442,0,0,1,2.537-1.076,13.083,13.083,0,0,1,3.267-.382,16.033,16.033,0,0,1,2.537.191,8.618,8.618,0,0,1,2.062.573,3.72,3.72,0,0,1,1.386.989,2.165,2.165,0,0,1,.512,1.44,2.836,2.836,0,0,1-.311,1.371,3.12,3.12,0,0,1-.785.955,4.581,4.581,0,0,0-.876-.364c-.389-.127-.815-.244-1.277-.348s-.93-.19-1.4-.26a9.079,9.079,0,0,0-1.3-.1,5.227,5.227,0,0,0-1.861.261.868.868,0,0,0-.658.815.723.723,0,0,0,.366.624,4.3,4.3,0,0,0,1.387.452l1.131.243a11.033,11.033,0,0,1,4.982,2.1A4.442,4.442,0,0,1,998.609,254.211Z" fill="#fff"></path> </g> <path d="M840.546,267.2l-10.979-3.825h-.023c-.338.018-.675.037-1.019.037-10.468,0-18.361-6.475-18.361-15.06s7.893-15.061,18.361-15.061,18.362,6.474,18.362,15.061a13.508,13.508,0,0,1-7.548,12.524l2.069,5.859a.556.556,0,0,1-.293.489.547.547,0,0,1-.263.067A.554.554,0,0,1,840.546,267.2Z" transform="translate(-525.164 -219.882)" fill="#fff"></path> <g transform="translate(-525.164 -219.882)"> <circle cx="11.842" cy="11.842" r="11.842" transform="translate(813.013 254.763) rotate(-67.5)" fill="#ef3024"></circle> <path d="M834.548,249.43c.017-.1.032-.2.045-.295l.009-.071c.01-.091.018-.184.025-.276l.006-.082c.007-.116.011-.233.011-.352h0a6.118,6.118,0,0,0-.608-2.669c-.043-.09-.088-.179-.136-.266-.094-.174-.2-.344-.308-.508a6.194,6.194,0,0,0-.752-.911c-.139-.139-.285-.272-.437-.4s-.31-.244-.474-.355-.334-.214-.508-.308c-.087-.048-.176-.093-.266-.136a6.119,6.119,0,0,0-2.669-.608h0c-.119,0-.236,0-.352.011l-.082.006c-.092.007-.185.015-.276.025l-.07.009c-.1.013-.2.028-.3.045l-.04.007A6.163,6.163,0,0,0,822.5,246.9h0c-.027.11-.05.221-.07.333l-.008.041c-.017.1-.032.2-.044.295l-.009.07c-.011.092-.019.184-.025.277,0,.027,0,.054-.007.081-.006.117-.01.234-.01.352h0a6.137,6.137,0,0,0,.607,2.67c.043.09.089.178.136.266.1.174.2.344.308.507.056.082.113.163.172.242a6.221,6.221,0,0,0,1.25,1.25c.079.059.16.116.242.172a6.117,6.117,0,0,0,3.443,1.051h0c.118,0,.235,0,.352-.01l.081-.007c.093-.006.185-.014.277-.025l.07-.009c.1-.012.2-.027.295-.044l.041-.007a6.164,6.164,0,0,0,4.868-4.606h0c.026-.109.049-.22.07-.332Z" fill="lime"></path> </g> </g> </svg>