<svg xmlns="http://www.w3.org/2000/svg" fill="none" viewBox="0 0 667 455"><path fill="#D9D7D4" d="M0 394.929h666.667v-.333H0v.333Zm457.684 14.122h45.872v-.334h-45.872v.334Zm-335.442-.167h25.813v.333h-25.813v-.333Zm160.106-.449h52.318v-.334h-52.318v.334Zm-24.721-4.741h23.388v-.333h-23.388v.333Zm237.8.167h70.648v-.333h-70.648v.333Zm90.324-176.16c-16.408-24.969-1.427-51.816-3.924-79.592-2.497-27.776-28.893-33.84-23.9-57.384 5.792-27.297-9.629-53.505-27.109-53.505-17.479 0-32.9 26.208-27.11 53.505 4.994 23.544-21.402 29.608-23.9 57.384-2.496 27.776 12.486 54.623-3.922 79.592-16.41 24.97-12.103 58.044-2.855 74.459a64.424 64.424 0 0 0 8.817 12.065c26.24 28.419 71.699 28.419 97.94 0 3.27-3.541 6.27-7.544 8.816-12.065 9.25-16.415 13.555-49.489-2.853-74.459Z"/><path fill="#EBE9E8" d="M539.111 394.596h-16.586V254.949c0-4.56 3.731-8.292 8.292-8.292 4.562 0 8.294 3.732 8.294 8.292v139.647Z"/><path fill="#D9D7D4" d="M426.546 394.596h-22.581V254.96c0-6.21 5.08-11.291 11.291-11.291 6.21 0 11.29 5.081 11.29 11.291v139.636Z"/><path fill="#EBE9E8" d="M484.812 287.371c0 38.414-31.141 69.556-69.557 69.556-38.415 0-69.558-31.142-69.558-69.556 0-38.416 31.143-69.558 69.558-69.558 38.416 0 69.557 31.142 69.557 69.558Z"/><path fill="#EBE9E8" d="M497.796 259.899c0 15.14-12.273 27.412-27.41 27.412-15.139 0-27.412-12.272-27.412-27.412 0-15.138 12.273-27.411 27.412-27.411 15.137 0 27.41 12.273 27.41 27.411Zm-122.563-16.23c0 8.963-7.265 16.23-16.23 16.23-8.964 0-16.23-7.267-16.23-16.23 0-8.964 7.266-16.229 16.23-16.229 8.965 0 16.23 7.265 16.23 16.229Z"/><path fill="#EBE9E8" d="M388.037 235.267c0 6.29-5.1 11.39-11.392 11.39-6.29 0-11.391-5.1-11.391-11.39 0-6.292 5.101-11.392 11.391-11.392 6.292 0 11.392 5.1 11.392 11.392Z"/><path fill="#D9D7D4" d="M271.959 311.253c-11.582 1.721-21.62 5.919-30.288 11.557-.083-10.553-2.015-20.578-6.975-28.672-7.551 7.359-13.666 16.875-18.608 27.111-1.849-19.245-6.901-37.888-18.089-49.672-16.763 10.543-25.403 28.119-29.513 46.731-6.679-11.927-15.894-22.935-28.618-30.938-10.257 10.802-13.53 25.739-13.258 41.035-11.651-13.564-24.591-24.155-37.203-25.399-3.106 21.487 3.508 41.745 11.912 57.718 11.024 20.951 32.955 33.872 56.629 33.872h54.78c23.348 0 45.237-12.457 56.192-33.076 6.939-13.056 10.239-29.875 3.039-50.267Z"/><path fill="#EBE9E8" d="M256.341 34.25c6.77-19.83 1.396-33.947-15.152-33.947-10.378 0-23.246 5.557-35.776 14.602-1.415-5.157-5.403-8.246-11.816-8.246-11.29 0-26.85 9.55-39.056 23.023-2.954-3.005-7.227-4.845-12.72-5.14-10.803-.607-23.887 4.88-35.264 13.803-.984-1.493-2.675-2.43-5.006-2.569-6.226-.348-14.653 5.19-18.84 12.363-.26.45-.492.885-.723 1.32h177.639c.531-6.252-.574-11.478-3.286-15.21v.001Zm.547 120.39c3.308-9.685.683-16.58-7.4-16.58-5.069 0-11.355 2.713-17.476 7.132-.691-2.519-2.639-4.028-5.772-4.028-5.515 0-13.115 4.664-19.077 11.245-1.443-1.466-3.53-2.366-6.214-2.51-5.277-.296-11.668 2.384-17.225 6.742-.48-.729-1.307-1.186-2.445-1.254-3.042-.17-7.158 2.536-9.202 6.038-.128.22-.241.432-.354.644h86.772c.258-3.053-.282-5.605-1.607-7.429Zm200.133-73.25c-.676-.1-1.362-.15-2.058-.15.638-9.675-3.06-15.852-10.959-15.852-5.701 0-12.695 3.225-19.824 8.682 2.04-18.778-4.492-30.983-19.283-30.983-11.93 0-27.037 7.938-41.956 20.886-1.306-7.367-5.702-11.782-13.088-11.782-12.977 0-31.413 13.644-46.197 32.894h-.019c-3.194-4.292-7.993-6.945-14.302-7.368-12.355-.868-27.695 6.97-41.296 19.747-1.036-2.157-2.92-3.498-5.615-3.672-6.756-.47-16.067 6.575-21.475 16.001h246.948c5.796-14.29 1.178-26.79-10.876-28.403Z"/><path fill="#F1EFEF" d="M591.851 439.716c0 8.338-115.742 15.097-258.518 15.097-142.776 0-258.519-6.759-258.519-15.097 0-8.339 115.743-15.099 258.519-15.099s258.518 6.76 258.518 15.099Z"/><path fill="#866FE3" d="m65.143 85.48 303.961 43.753 40.793 41.167L65.143 85.48Z"/><path fill="#DDDBF9" d="m409.897 170.4-47.76-11.764 6.967-29.403 40.793 41.167Z"/><path fill="#866FE3" d="m65.143 85.48 303.961 43.753-14.106 59.527L65.143 85.48Z"/><path fill="#A598ED" d="m354.998 188.76-39.145-43.699-58.729-13.957 50.341-10.743 61.639 8.872-6.967 29.403-7.139 30.124Zm-166.94-74.07L65.143 85.48l120.379 17.328 2.536 11.882Z"/><path fill="#866FE3" d="m348.756 16.565 17.651 82.703c.956 4.48-1.928 8.927-6.407 9.881l-157.44 33.599c-4.479.956-8.924-1.927-9.88-6.405L175.031 53.64c-.5-2.34.05-4.68 1.328-6.513a8.321 8.321 0 0 1 5.077-3.37L338.875 10.16a8.34 8.34 0 0 1 9.881 6.405Z"/><path fill="#4D2F97" d="M200.828 142.931c-3.841 0-7.318-2.69-8.15-6.588l-1.252-5.866 25.708 9.16-14.576 3.111a8.245 8.245 0 0 1-1.73.183Zm56.294-11.827-69.066-16.413-13.028-61.051a8.331 8.331 0 0 1 1.328-6.513 8.326 8.326 0 0 1 5.078-3.37L338.872 10.16a8.343 8.343 0 0 1 9.882 6.405l17.65 82.703a8.27 8.27 0 0 1 .183 1.724c.003 3.844-2.688 7.325-6.589 8.157l-3.014.644-17.312 3.695-.333.071-15.712 3.353-.333.071-66.172 14.121Z"/><path fill="#866FE3" d="m344.885 11.161-52.608 64.576c-10.048 12.334-27.325 16.02-41.532 8.864l-74.387-37.474a8.329 8.329 0 0 1 5.078-3.37L338.874 10.16a8.33 8.33 0 0 1 6.011 1.001ZM65.143 85.481l250.71 59.58 39.145 43.699L65.143 85.48Z"/><path fill="#DDDBF9" d="m354.998 188.76-15.324-5.46-.333-.119-15.712-5.599-.333-.118-66.159-23.574-24.887-8.868-.32-.113-9.097-3.241-5.697-2.031-25.708-9.16L65.143 85.481l250.71 59.58 39.145 43.699Z"/><path fill="#866FE3" d="m183.817 160.409-27.896-16.341.675-1.151 27.896 16.342-.675 1.15Zm22.358 13.099-10.034-5.879.674-1.151 10.035 5.879-.675 1.151ZM65.143 85.48l250.71 59.581-48.732 58.741L65.143 85.481Zm335.337 139.6a2.63 2.63 0 0 1-.98-.19l-40.846-16.17a2.651 2.651 0 0 1-1.466-1.42 2.666 2.666 0 0 1 .532-2.917 2.665 2.665 0 0 1 2.898-.622l40.846 16.172a2.679 2.679 0 0 1 1.35 1.197c.297.544.396 1.174.28 1.783a2.668 2.668 0 0 1-2.614 2.167Z"/><path fill="#7450D7" d="M400.479 225.08c-.325 0-.657-.062-.98-.19l-40.845-16.17a2.667 2.667 0 0 1-1.685-2.438 2.66 2.66 0 0 1 .752-1.898 2.645 2.645 0 0 1 1.873-.81 2.66 2.66 0 0 1 1.024.187l40.845 16.172a2.668 2.668 0 0 1-.984 5.147Z"/><path fill="#866FE3" d="M398.074 201.659c-.326 0-.659-.062-.982-.188l-21.936-8.686a2.667 2.667 0 0 1-1.685-2.437 2.66 2.66 0 0 1 .188-1.024 2.649 2.649 0 0 1 1.419-1.467 2.685 2.685 0 0 1 1.018-.219c.35-.005.698.06 1.024.189l21.936 8.685a2.67 2.67 0 0 1 1.643 2.981 2.669 2.669 0 0 1-2.625 2.166Z"/><path fill="#C4BEF4" d="M398.073 201.659c-.325 0-.658-.062-.981-.188l-21.936-8.686a2.651 2.651 0 0 1-1.466-1.42 2.657 2.657 0 0 1-.031-2.041 2.663 2.663 0 0 1 3.461-1.497l21.936 8.685a2.667 2.667 0 0 1 1.685 2.438 2.671 2.671 0 0 1-2.668 2.709Z"/><path fill="#866FE3" d="M352.215 224.676c-.326 0-.658-.061-.98-.188l-39.826-15.768a2.69 2.69 0 0 1-.874-.564 2.68 2.68 0 0 1-.81-1.873 2.675 2.675 0 0 1 .751-1.898 2.666 2.666 0 0 1 2.897-.624l39.824 15.768a2.666 2.666 0 0 1 1.635 2.979 2.67 2.67 0 0 1-2.617 2.168Z"/><path fill="#7450D7" d="M352.214 224.676c-.325 0-.657-.061-.98-.188l-11.561-4.577-.333-.132-15.712-6.222-.334-.132-11.885-4.705a2.69 2.69 0 0 1-.874-.564 2.68 2.68 0 0 1-.81-1.874 2.67 2.67 0 0 1 2.625-2.708 2.67 2.67 0 0 1 1.023.187l39.824 15.768c.498.197.926.539 1.227.982a2.664 2.664 0 0 1 .27 2.48 2.66 2.66 0 0 1-2.48 1.685Z"/><path fill="#FF9C37" d="M496.402 104.492a366.893 366.893 0 0 1 9.848 20.872c3.053 7.073 5.956 14.221 8.452 21.721l.912 2.844c.153.506.39 1.336.514 1.927.124.616.259 1.252.331 1.815.352 2.324.415 4.421.455 6.486.065 4.112-.214 8.034-.555 11.932a191.571 191.571 0 0 1-3.631 22.966l-7.31-.812c-.095-7.511-.166-15.095-.426-22.492-.132-3.692-.344-7.376-.717-10.85a43.42 43.42 0 0 0-.793-4.833c-.075-.375-.175-.66-.26-.971-.106-.33-.151-.408-.296-.802l-1.006-2.522c-2.785-6.746-5.921-13.553-9.117-20.325l-9.68-20.312 13.279-6.644Z"/><path fill="#FF9C37" d="m505.523 191.959-3.414 6.384 10.903 3.041s2.076-5.136-.397-9.185l-7.092-.24Z"/><path fill="#FF9C37" d="m497.932 207.546 10.024.791 5.058-6.953-10.902-3.042-4.18 9.204Z"/><path fill="#242D38" d="M450.499 58.417c-.156.775-.695 1.32-1.2 1.216-.507-.104-.79-.814-.632-1.589.157-.773.696-1.319 1.2-1.215.506.103.789.815.632 1.588Z"/><path fill="#9E3A0E" d="M449.872 59.75s-2.668 4.108-5.044 5.87c1.109 1.557 3.557 1.445 3.557 1.445l1.487-7.315Z"/><path fill="#242D38" d="M454.206 54.695a.47.47 0 0 1-.341-.15c-1.388-1.504-3.038-1.26-3.111-1.25a.466.466 0 0 1-.523-.383.464.464 0 0 1 .37-.532c.089-.016 2.204-.35 3.946 1.535a.466.466 0 0 1-.025.656l-.316.124Z"/><path fill="#FF9C37" d="M472.553 69.307c-1.404 7.166-2.806 20.296 2.206 25.077 0 0-1.957 7.269-15.273 7.269-14.641 0-6.997-7.268-6.997-7.268 7.99-1.908 7.785-7.837 6.393-13.405l13.671-11.673Z"/><path fill="#242D38" d="M476.769 98.91c1.058-3.513 2.222-7.53-.186-8.79-2.65-1.384-17.151-2.797-22.15-.198-5 2.6-3.581 9.722-3.581 9.722l25.917-.735v.001Z"/><path fill="#866FE3" d="m506.299 429.559-.286.029a.633.633 0 0 0-.429.312c-.209.383-.085.544-.045.597.42.55 2.422.559 3.882.311-.842-.52-2.232-1.249-3.122-1.249Zm1.224 1.866c-1.004 0-1.975-.153-2.352-.647-.159-.207-.287-.566.008-1.102.153-.28.4-.461.728-.54 1.438-.331 4.134 1.517 4.249 1.594l.096.235-.172.183c-.503.121-1.547.277-2.557.277Z"/><path fill="#866FE3" d="m508.048 427.184-.104.006c-.303.037-.328.176-.34.235-.121.647 1.127 2.269 2.135 3.031-.115-.825-.428-2.472-1.158-3.068a.82.82 0 0 0-.533-.204Zm1.979 3.971-.111-.028c-1.013-.55-2.975-2.694-2.768-3.788.039-.198.184-.54.739-.61.352-.04.692.056.988.299 1.138.929 1.373 3.756 1.382 3.876l-.105.212-.125.039Zm-62.875-1.63c-.162 0-.313.017-.448.053-.214.059-.362.164-.453.324-.167.29-.107.432-.047.514.442.612 2.916.644 4.754.39-.91-.466-2.66-1.281-3.806-1.281Zm1.552 1.902c-1.256 0-2.468-.174-2.876-.739-.142-.198-.254-.535.019-1.015.153-.269.403-.451.737-.543 1.62-.433 5.054 1.509 5.198 1.592l.113.238-.184.191c-.625.125-1.835.276-3.007.276Z"/><path fill="#866FE3" d="m449.275 427.184-.139.006c-.418.043-.444.207-.453.262-.107.665 1.484 2.331 2.69 3.053-.124-.769-.475-2.348-1.292-3.02-.224-.193-.51-.3-.806-.301Zm2.389 3.971-.094-.02c-1.182-.53-3.524-2.647-3.346-3.757.043-.261.227-.583.864-.649.475-.045.907.085 1.287.398 1.247 1.024 1.509 3.661 1.52 3.773l-.095.212-.136.043Z"/><path fill="#FF9C37" d="M462.435 430.923h-9.796l-.975-22.683h9.796l.975 22.683Zm58.811 0h-9.795l-4.924-22.683h9.796l4.923 22.683Z"/><path fill="#242D38" d="M510.757 429.788h11.004c.402 0 .748.278.835.669l1.935 8.708c.201.901-.508 1.758-1.435 1.741-3.841-.066-5.708-.29-10.547-.29-2.977 0-9.112.308-13.222.308-4.02 0-4.648-4.065-2.964-4.434 7.546-1.65 10.389-3.927 12.805-6.098a2.376 2.376 0 0 1 1.589-.604Zm-58.05 0h10.697c.401 0 .747.278.835.669l1.934 8.708c.2.901-.485 1.758-1.41 1.741-3.858-.065-9.434-.29-14.284-.29-5.671 0-10.568.308-17.219.308-4.02 0-5.136-4.065-3.453-4.434 7.662-1.676 13.918-1.855 20.541-5.937.719-.444 1.515-.765 2.359-.765Z"/><path fill="#FF9C37" d="M447.974 111.589a227.326 227.326 0 0 1-24.409-3.245c-4.041-.776-8.091-1.643-12.139-2.733-4.052-1.087-8.113-2.318-12.216-4.031a64.931 64.931 0 0 1-3.096-1.387 29.39 29.39 0 0 1-3.326-1.94c-1.927-1.273-3.575-2.584-5.215-3.892-3.263-2.612-6.297-5.328-9.292-8.07a275.83 275.83 0 0 1-17.068-17.228l4.905-5.48 19.346 13.902a334.578 334.578 0 0 0 9.586 6.672 77.45 77.45 0 0 0 4.664 2.875c.618.356 1.26.67 1.92.941.792.31 1.596.616 2.439.899 6.772 2.259 14.429 3.71 22.035 4.935 7.613 1.205 15.48 2.197 23.08 2.985l-1.214 14.797Z"/><path fill="#866FE3" d="M492.297 96.6c9.18 2.103 18.461 28.947 18.461 28.947l-18.897 13.554s-5.28-12.502-10.472-23.436c-5.441-11.454 1.522-21.218 10.908-19.066Z"/><path fill="#4D2F97" d="M491.861 139.101s-1.462-3.465-3.605-8.34v-.006c1.631 3.708 2.868 6.601 3.371 7.777-.092-6.856-1.022-14.855-2.451-20.811.673-6.948 1.675-14.057 3.121-21.122 0 0-.317-.063-.886-.17.292.046.588.102.886.17 9.18 2.104 18.462 28.948 18.462 28.948l-3.388 2.43-12.122 8.694-3.388 2.43Z"/><path fill="#866FE3" d="m487.001 111.264-3.747 8.387c3.88 8.374 7.427 16.666 8.373 18.881-.133-9.908-2.013-22.2-4.626-27.268Z"/><path fill="#462C86" d="M491.627 138.532c-.503-1.176-1.74-4.069-3.371-7.777.195-4.24.491-8.606.92-13.034 1.429 5.956 2.359 13.955 2.451 20.811Z"/><path fill="#866FE3" d="M437.421 97.104s-10.425 11.776-.579 84.663h52.391c.36-8.042-4.693-47.275 3.064-85.168 0 0-8.98-1.802-17.539-2.215-6.693-.323-16.385-.536-22.27.001-7.759.708-15.067 2.72-15.067 2.72Z"/><path fill="#4D2F97" d="M489.233 181.767h-52.391c-3.159-23.382-4.232-40.475-4.231-52.908 0-2.803.055-5.367.152-7.715 2.956-.92 6.403-2.217 9.84-4.012 5.578-.808 10.79-2.165 13.355-4.439 3.196-2.833 5.045-6.526 5.043-9.854-.006-4.126-2.854-7.688-9.514-8.355.332-.036.666-.07 1-.099 2.595-.237 5.928-.328 9.419-.328 4.428 0 9.109.147 12.852.327 8.559.413 17.539 2.215 17.539 2.215-1.447 7.065-2.448 14.174-3.122 21.122a259.217 259.217 0 0 0-.92 13.034v.006c-.21 4.664-.313 9.333-.31 14.002.001 17.136 1.308 30.705 1.306 36.041 0 .359-.006.68-.018.963Zm-56.419-61.756c.033-.668.069-1.32.108-1.952.003 0 .003 0 .004-.002-.04.634-.077 1.284-.112 1.954Z"/><path fill="#866FE3" d="M433.546 111.264c-.346 2.761-.613 6.027-.786 9.88 4.333-1.347 9.72-3.505 14.586-6.853l-13.8-3.027Z"/><path fill="#462C86" d="M432.76 121.144c.049-1.073.104-2.101.166-3.087 3.05-.169 6.426-.453 9.678-.925-3.438 1.795-6.884 3.092-9.84 4.012h-.004Z"/><path fill="#866FE3" d="M455.958 112.693c-7.009 6.211-33.786 5.59-33.786 5.59l-.883-25.886s15.18 2.225 27.293 1.98c14.962-.303 15.067 11.5 7.376 18.316Z"/><path fill="#4D2F97" d="M424.188 118.3c-1.272 0-2.016-.018-2.016-.018l-.883-25.885s13.633 2 25.369 2c.648 0 1.29-.008 1.924-.02.188-.003.375-.005.56-.005 8.34 0 11.854 3.888 11.859 8.466.003 3.328-1.847 7.022-5.043 9.855-2.565 2.273-7.777 3.631-13.354 4.439-3.252.472-6.628.756-9.678.925l-.004.001c-3.629.202-6.796.242-8.734.242Z"/><path fill="#FF9C37" d="m366.359 63.716-6.723-7.85-7.177 7.95s4.419 7.433 11.455 6.261l2.445-6.36Z"/><path fill="#FF9C37" d="m350.142 46.71-2.585 10.243 4.902 6.863 7.178-7.95-9.495-9.156Z"/><path fill="#C74A07" d="m451.668 408.245.501 11.694h9.799l-.5-11.694h-9.8Zm64.66 0h-9.8l2.544 11.694h9.798l-2.542-11.694Z"/><path fill="#242D38" d="M457.567 48.681c-8.788-4.06-11.566-21.784 13.712-17.394 0 0-3.808 4.222 3.929 6.89 7.737 2.665 1.26 19.24-17.641 10.504Z"/><path fill="#FF9C37" d="M476.654 62.025c-2.516 9.39-3.513 15.014-9.307 18.918-8.716 5.873-19.568-.868-19.908-10.82-.304-8.958 3.863-22.81 13.938-24.7 9.928-1.866 17.794 7.212 15.277 16.602Z"/><path fill="#242D38" d="M470.933 36.059c5.983 3.345 14.092 5.34 13.276 10.082-.997 5.798 4.902 2.17 3.528 10.808-.897 5.64-11.3 22.73-18.623 21.896-11.008-1.254-9.613-18.07-9.649-26.905-.022-5.21-.265-22.444 11.468-15.881Z"/><path fill="#242D38" d="M458.145 43.547c-2.666.63-6.2 15.998 4.13 17.406 11.888 1.62-4.13-17.406-4.13-17.406Z"/><path fill="#242D38" d="M458.416 49.001c-3.269.288-10.64-3.645-9.76-9.56 0 0 4.699 6.922 9.76 9.56Z"/><path fill="#FF9C37" d="M463.262 62.181c-1.023 2.332-2.958 4.167-4.832 5.143-2.818 1.466-4.402-.68-3.764-3.499.574-2.537 2.732-6.358 5.63-6.67 2.855-.309 4.135 2.36 2.966 5.026Z"/><path fill="#242D38" d="M477.928 51.33c1.98-1.007 6.485-3.29 7.713-9.767 0 0 4.4 12.289-7.713 9.766v.001Z"/><path fill="#242D38" d="M489.058 51.2c-.987-.579-3.231-1.897-6.38-.628 0 0 4.104-5.327 6.38.628Z"/><path fill="#866FE3" d="M455.428 181.767s11.116 74.856 17.218 102.901c6.683 30.709 31.86 133.005 31.86 133.005h17.942s-16.603-99.817-20.416-130.222c-4.139-33.002-12.798-105.684-12.798-105.684h-33.806Z"/><path fill="#C4BEF4" d="m521.465 411.742-18.572-.636c-5.661-23.073-24.587-100.43-30.247-126.438-.081-.373-.162-.755-.245-1.144.493-7.871.968-18.108.967-28.483-.002-14.369-.914-28.998-3.947-37.965a7430.936 7430.936 0 0 1 1.86-35.309h-15.853 33.806s8.659 72.682 12.798 105.684c3.253 25.937 15.812 102.381 19.433 124.291Z"/><path fill="#866FE3" d="m501.641 411.064 1.853 6.889h20.184l-.371-6.148-21.666-.741Z"/><path fill="#7450D7" d="M523.678 417.953h-20.184l-1.853-6.889 21.666.741.371 6.148Z"/><path fill="#866FE3" d="M462.452 208.437c12.853 2.52 11.493 50.454 9.947 75.108-3.706-17.428-9.134-50.961-12.84-74.761.854-.425 1.813-.559 2.893-.347Z"/><path fill="#DDDBF9" d="M472.399 283.545c-1.436-6.751-3.129-15.917-4.881-25.998.57-13.41 1.265-27.839 1.902-40.471 3.034 8.967 3.946 23.596 3.947 37.965.001 10.375-.473 20.612-.967 28.483l-.001.021Z"/><path fill="#866FE3" d="M436.844 181.767s-1.349 73.234-.284 103.106c1.108 31.071 11.96 132.8 11.96 132.8h16.593s.61-99.914 1.348-130.429c.804-33.264 4.82-105.477 4.82-105.477h-34.437Z"/><path fill="#C4BEF4" d="m465.148 411.742-17.318-.591a6513.334 6513.334 0 0 1-5.962-59.498c-2.484-26.163-4.826-53.212-5.31-66.78-.302-8.445-.41-20.356-.41-33.098-.001-32.328.694-70.008.694-70.008h34.437s-.859 15.43-1.86 35.309a5410.978 5410.978 0 0 0-1.903 40.471c-.469 11.045-.854 21.397-1.052 29.485l-.005.212c-.513 21.208-.964 75.94-1.192 107.352l-.003.333-.096 13.788-.001.334-.019 2.691Zm-24.44-159.894c0 12.733.108 24.639.407 33.032.872 24.441 7.769 92.569 10.693 120.725l.166.149.017-.001.148-.182c-2.924-28.154-9.819-96.272-10.691-120.704-.298-8.391-.406-20.292-.406-33.023 0-25.112.414-53.452.593-64.44l-.164-.169-.168.164c-.18 10.989-.595 39.332-.595 64.449Z"/><path fill="#866FE3" d="m451.974 405.754-.165-.149c-2.924-28.156-9.821-96.284-10.693-120.725-.89-24.948-.083-80.921.188-97.481l.166-.164h.002l.164.169c-.27 16.559-1.076 72.524-.187 97.463.872 24.432 7.767 92.55 10.691 120.704l-.148.182-.018.001Z"/><path fill="#DDDBF9" d="m451.974 405.754-.165-.149c-2.924-28.156-9.821-96.284-10.693-120.725-.299-8.393-.407-20.299-.407-33.032 0-25.117.415-53.46.595-64.449l.166-.164h.002l.164.169c-.179 10.988-.594 39.328-.594 64.44 0 12.731.108 24.632.407 33.023.872 24.432 7.767 92.55 10.691 120.704l-.148.182-.018.001Z"/><path fill="#866FE3" d="m445.324 411.064.936 6.889h20.186l.545-6.148-21.667-.741Z"/><path fill="#7450D7" d="M466.446 417.953H446.26l-.936-6.889 21.667.741-.545 6.148Z"/></svg>